<svg width="50" height="50" viewBox="0 0 80 80" fill="none" xmlns="http://www.w3.org/2000/svg">
<path d="M54.5828 10.8328C58.4473 10.8444 62.1502 12.3846 64.8828 15.1172C67.6154 17.8498 69.1556 21.5527 69.1672 25.4172V54.5828C69.1556 58.4473 67.6154 62.1502 64.8828 64.8828C62.1502 67.6154 58.4473 69.1556 54.5828 69.1672H25.4172C21.5527 69.1556 17.8498 67.6154 15.1172 64.8828C12.3846 62.1502 10.8444 58.4473 10.8328 54.5828V25.4172C10.8444 21.5527 12.3846 17.8498 15.1172 15.1172C17.8498 12.3846 21.5527 10.8444 25.4172 10.8328H54.5828ZM54.5828 5H25.4172C14.1875 5 5 14.1875 5 25.4172V54.5828C5 65.8125 14.1875 75 25.4172 75H54.5828C65.8125 75 75 65.8125 75 54.5828V25.4172C75 14.1875 65.8125 5 54.5828 5Z" fill="white"/>
<path d="M58.9578 25.4172C58.0925 25.4172 57.2467 25.1606 56.5272 24.6799C55.8077 24.1992 55.247 23.5159 54.9158 22.7165C54.5847 21.9171 54.4981 21.0374 54.6669 20.1887C54.8357 19.3401 55.2524 18.5605 55.8642 17.9486C56.4761 17.3368 57.2556 16.9201 58.1043 16.7513C58.953 16.5825 59.8326 16.6691 60.6321 17.0003C61.4315 17.3314 62.1148 17.8922 62.5955 18.6116C63.0762 19.3311 63.3328 20.1769 63.3328 21.0422C63.3341 21.6171 63.2217 22.1866 63.0023 22.7179C62.7829 23.2493 62.4607 23.7321 62.0542 24.1386C61.6477 24.5451 61.1649 24.8673 60.6335 25.0867C60.1022 25.3062 59.5327 25.4185 58.9578 25.4172ZM40 28.3329C42.3076 28.3329 44.5633 29.0171 46.482 30.2991C48.4006 31.5811 49.896 33.4033 50.7791 35.5352C51.6621 37.6671 51.8932 40.013 51.443 42.2762C50.9928 44.5394 49.8816 46.6183 48.25 48.25C46.6183 49.8817 44.5394 50.9929 42.2762 51.4431C40.0129 51.8932 37.6671 51.6622 35.5352 50.7791C33.4033 49.8961 31.5811 48.4007 30.2991 46.482C29.0171 44.5633 28.3328 42.3076 28.3328 40C28.3361 36.9067 29.5664 33.9411 31.7537 31.7538C33.941 29.5665 36.9067 28.3362 40 28.3329ZM40 22.5001C36.5388 22.5001 33.1554 23.5264 30.2775 25.4493C27.3997 27.3723 25.1566 30.1054 23.8321 33.3031C22.5076 36.5008 22.161 40.0195 22.8363 43.4141C23.5115 46.8088 25.1782 49.927 27.6256 52.3744C30.0731 54.8218 33.1913 56.4886 36.5859 57.1638C39.9806 57.839 43.4993 57.4925 46.697 56.1679C49.8947 54.8434 52.6278 52.6004 54.5507 49.7225C56.4737 46.8447 57.5 43.4612 57.5 40C57.5 35.3588 55.6563 30.9076 52.3744 27.6257C49.0925 24.3438 44.6413 22.5001 40 22.5001Z" fill="white"/>
</svg>
